<svg width="800" height="800" viewBox="0 0 800 800" fill="none" xmlns="http://www.w3.org/2000/svg">
<path d="M348.664 56.374C447.282 42.8217 547.242 69.0293 626.524 129.223C706.192 189.481 758.497 279.06 771.812 378.059C780.865 447.447 770.543 517.987 741.984 581.871C736.789 593.291 729.414 608.126 722.466 618.431L732.283 613.946C702.671 683.993 624.686 696.722 556.853 695.584C512.264 694.833 465.508 688.055 421.813 679.082C404.732 675.56 387.72 671.725 370.785 667.577C360.266 664.977 348.594 661.647 338.05 659.434C272.83 645.771 201.52 638.887 137.763 662.694C122.883 668.254 98.1488 681.046 86.4252 691.88L85.2993 691.43C94.3783 679.304 98.5609 673.375 109.186 662.143C101.688 656.447 93.1035 643.342 87.7446 635.273C56.4439 588.272 36.1808 534.801 28.4711 478.863C14.9786 380.428 41.1509 280.664 101.227 201.528C161.194 122.247 250.2 70.0334 348.664 56.374ZM648.034 166.23C504.243 29.2473 273.164 34.9822 137.44 180.033C71.4948 250.047 36.2264 343.423 39.4448 439.481C41.7091 504.359 61.5274 567.414 96.7963 621.95C101.615 629.422 112.754 646.443 119.19 652.242C144.054 629.976 167.412 617.037 199.446 606.829C207.135 604.375 219.673 600.52 227.446 599.922C242.469 598.77 257.145 600.099 272.456 598.897C272.347 578.725 273.27 558.646 273.024 538.329C272.829 522.239 272.544 504.209 273.699 488.152C274.41 478.266 278.523 466.104 280.053 456.109C281.35 450.208 283.986 444.009 285.063 438.101C292.092 399.542 298.238 360.74 312.916 324.174C316.93 314.175 319.678 302.039 323.225 291.609C317.676 289.884 316.821 288.845 312.515 284.896C310.205 288.225 308.203 293.672 305.91 296.123C304.008 296.439 301.567 296.2 300.811 297.283C299.689 298.889 298.729 301.984 297.202 303.059C297.039 301.2 297.289 300.663 297.758 298.895C297.595 296.101 298.499 292.755 297.267 291.366L296.294 291.569C293.866 299.661 291.249 310.374 286.898 317.307C287.282 314.706 287.794 310.32 288.474 307.926C289.47 305.33 291.082 291.588 290.913 288.39L290.859 289.044L290.528 288.039C289.033 290.57 288.819 292.4 288.173 295.252C286.758 299.461 283.56 311.37 282.192 314.406C277.382 325.078 276.502 320.666 273.874 333.331C273.541 330.293 273.026 326.614 272.957 323.608L269.402 322.808C268.599 326.914 266.358 339.947 265.124 342.851L264.508 342.779C264.206 341.5 264.072 340.998 263.968 339.697C263.013 338.669 262.512 337.918 261.187 337.468L260.262 338.364C260.08 343.585 259.601 349.248 258.457 354.344C257.783 351.181 257.292 347.165 255.712 344.541C254.378 344.62 254.889 344.496 253.697 345.265L253.252 344.852C253.724 341.931 253.824 341.19 253.644 338.255L255.206 331.911C251.546 337.173 248.809 340.659 244.186 345.059C247.639 330.953 251.33 320.139 262.054 310.418L260.76 308.634C258.745 309.95 257.526 310.352 255.267 311.265C258.014 306.253 260.767 304.181 263.49 299.996C267.588 293.697 268.736 290.997 273.724 285.13C271.869 282.208 271.011 283.478 269.431 281.495L270.387 280.106L278.898 269.301C271.554 274.12 264.629 279.548 258.199 285.528C256.821 282.905 255.264 280.708 253.613 278.259C250.187 281.465 247.059 284.962 243.389 288.342C249.762 276.182 255.187 268.81 266.973 261.306C269.185 259.898 271.571 258.723 273.63 257.191L274.604 255.817C274.554 251.82 270.347 251.718 267.145 251.455C260.992 250.639 254.741 249.941 248.694 248.574C262.481 245.35 281.639 247.498 295.843 247.506C295.239 245.684 294.266 245.03 292.874 243.51C291.925 243.086 292.171 243.176 291.361 242.466C297.825 237.935 309.633 234.858 312.324 232.098L312.133 231.206C307.589 230.457 289.227 238.136 283.599 240.279C288.773 234.266 291.214 233.424 298.125 229.634C286.949 228.739 284.276 228.911 274.017 232.608C275.029 230.885 277.529 228.525 279.061 226.572L278.909 226.043C276.238 227.055 272.579 227.467 269.686 227.93C272.344 225.105 273.712 223.889 276.738 221.441C273.574 222.026 270.062 222.482 266.854 222.965C273.779 215.203 277.02 216.205 285.388 212.779L285.349 211.836C284.929 211.373 283.783 210.075 283.27 210.073C275.945 210.049 252.385 222.092 246.597 224.963C251.641 218.178 256.72 212.746 264.89 209.865C267.547 208.928 271.308 207.66 273.431 205.941L273.43 205.065C264.206 199.575 250.408 219.233 239.369 215.071C239.385 213.417 239.259 213.493 238.347 212.062C235.033 215.26 229.669 219.894 226.077 222.559C228.05 217.407 229.3 215.552 232.541 211.308L231.883 210.18C227.04 213.943 227.261 214.296 221.221 214.776C217.003 217.917 212.912 223.421 208.613 227.297C210.178 222.736 215.483 213.376 215.225 210.57C212.263 211.291 200.678 227.353 198.205 230.604C198.651 227.024 198.991 224.119 200.166 220.683C200.591 219.441 202.599 215.49 202.452 214.852L201.859 215.416C200.072 214.831 198.261 214.317 196.433 213.876L195.777 214.334C194.879 214.918 193.975 215.493 193.068 216.062C190.999 217.35 190.29 217.984 187.987 217.462C187.49 212.96 197.111 207.501 201.463 207.953C204.244 208.243 207.025 206.385 208.7 204.103C207.318 203.351 203.878 204.092 201.172 203.709L201.011 203.008C206.23 197.083 215.569 198.41 222.66 197.938C225.537 197.747 228.644 196.962 231.47 196.295C227.923 195.526 215.858 194.729 214.595 193.876C216.045 192.033 217.655 191.896 219.729 191.092C231.319 186.596 240.863 193.498 252.801 194.538C248.874 191.088 245.226 188.856 241.201 184.996C247.38 186.248 251.825 187.611 257.614 189.999C259.559 189.411 259.66 189.308 261.347 188.342C269.295 188.321 283.444 194.719 290.637 198.635C293.06 199.954 300.823 206.262 303.238 208.184C301.346 205.173 300.399 202.944 298.95 199.705C309.521 206.091 310.533 212.868 321.479 217.991C318.239 212.64 312.959 206.74 309.69 201.08C308.788 199.52 305.036 196.49 303.465 194.445L303.586 193.877C307.799 194.591 313.688 198.75 317.478 201.18C311.112 192.877 307.953 191.791 300.221 184.813C303.698 185.99 305.993 186.882 309.245 188.628C311.46 189.817 314.309 192.308 316.401 192.871L316.609 192.131C313.82 185.643 297.161 179.02 294.383 174.717C295.14 173.66 294.708 174.177 295.696 173.181L295.31 170.497C296.174 168.834 296.756 168.291 297.972 166.913C296.065 166.077 289.456 163.589 288.914 161.714C290.411 161.475 291.206 161.481 292.471 160.628L292.334 159.425C290.461 157.089 287.72 155.725 285.111 154.127C290.587 154.717 293.78 155.353 299.137 156.626C295.274 154.157 283 147.805 281.738 144.569L282.183 144.078C283.78 144.254 285.129 144.449 286.719 144.702L286.682 143.966C285.012 142.346 278.255 138.836 275.221 136.744C278.739 137.132 284.598 138.297 287.666 137.34L287.366 136.548C279.297 131.837 272.606 130.859 263.643 129.566C266.285 128.172 267.565 127.427 270.614 127.102C272.623 126.887 275.098 126.833 276.404 125.4C275.618 123.681 273.74 122.782 272.081 121.715C271.631 120.106 271.748 119.927 270.64 118.742C267.082 114.723 263.553 112.207 259.318 108.935C264.781 110.318 271.975 111.225 276.104 115.095C278.652 117.483 279.454 117.221 282.658 116.488C288.259 118.523 292.18 123.213 294.548 128.512C298.908 138.264 296.036 142.17 303.547 150.771C303.652 140.847 302.509 138.425 299.431 128.926C305.256 133.016 306.259 134.879 309.3 141.549L309.958 143.856L310.174 143.606C311.937 144.092 311.116 143.788 312.624 145.241L312.727 145.934C316.403 151.644 318.521 155.26 318.481 162.429L320.776 163.539C322.075 162.837 321.556 163.321 322.344 162.1L322.136 160.842L323.075 160.505C326.043 161.671 330.917 166.362 333.394 168.607C328.099 157.729 324.282 155.203 317.562 145.912L318.448 146.368C325.92 150.15 328.111 153.635 334.303 159.046C329.579 149.247 320.744 139.019 313.714 130.644C319.631 132.948 321.443 134.126 326.194 138.337C326.925 137.928 327.907 137.821 328.725 137.641C325.403 133.358 312.635 119.587 311.455 117.534C315.431 119.115 319.492 120.838 322.708 123.736C324.312 125.181 324.851 126.187 326.685 127.535L327.002 126.596C325.748 118.66 313.07 111.83 308.364 104.083C311.084 104.876 316.429 107.536 318.121 107.633L318.101 106.326C317.997 103.091 317.616 99.7564 318.691 96.7871C322.955 100.849 325.439 105.586 327.398 111.079L328.301 113.388C329.621 113.71 329.631 113.674 331.002 113.62C334.779 116.989 335.296 119.679 336.433 124.617C336.306 132.445 336.668 136.184 334.674 143.895C335.795 146.052 336.004 147.306 337.841 148.506C339.945 146.713 339.181 133.706 338.975 130.322C339.344 128.322 339.012 128.118 340.206 126.995C342.282 129.008 342.842 134.972 343.055 137.977C344.473 141.314 342.435 144.448 344.812 148.757C348.026 156.218 345.308 171.47 343.627 179.375C341.967 187.181 340.586 189.34 342.21 197.211C343.802 190.504 346.689 173.036 349.823 167.952L350.573 168.201C352.307 171.825 349.486 182.431 353.726 183.792C354.975 182.721 356.049 177.478 357.335 175.293C359.181 172.16 366.409 159.505 368.581 157.715C373.962 157.084 372.328 155.951 375.497 152.089C379.524 147.185 384.347 141.798 389.831 138.488C390.945 137.817 391.792 140.397 393.64 139.203C396.797 138.324 401.451 135.346 404.338 136.26L404.3 137.438C403.192 139.297 402.619 139.501 400.725 140.563L399.886 141.132C400.655 142.647 401.715 144.152 403.393 144.776C407.804 148.058 413.479 151.73 411.987 158.223C409.468 158.269 399.333 144.295 391.677 151.419L391.257 152.763C396.596 156.904 397.724 151.132 406.506 162.067C400.731 160.569 386.335 156.131 382.195 161.813L382.251 162.717C390.355 164.936 391.399 160.267 400.34 167.33L400.736 167.652C395.952 167.751 377.555 168.165 375.771 173.968L376.367 174.578C385.347 173.885 386.705 172.933 394.515 177.519L395.06 178.47C392.855 179.723 381.11 178.421 374.204 180.111C370.61 180.981 369.801 181.158 367.878 184.302L367.401 186.305C366.402 188.474 365.974 188.441 366.256 190.389C368.88 191.19 372.586 189.169 376.202 188.45C378.564 189.364 377.818 188.594 378.846 190.485C377.866 192.167 378.113 191.851 375.536 192.637C370.465 193.314 367.753 194.961 363.643 197.863C372.792 197.268 374.89 196.419 382.4 201.391C378.307 201.516 374.61 201.651 370.535 202.01L370.217 203.699C372.192 204.419 372.344 204.052 373.314 205.44C369.072 207.938 366.08 208.646 362.148 211.795C364.937 211.882 367.209 211.701 369.745 212.777L370.267 213.586L369.647 214.879C359.319 217.714 353.82 219.393 345.705 227.192C354.579 224.535 356.958 223.447 365.648 227.424C369.089 225.558 377.336 220.032 380.235 219.232C389.399 216.706 395.613 214.982 404.45 211.005L406.113 211.697C405.674 214.062 401.894 216.292 399.786 217.832C404.031 216.755 406.883 216.13 410.716 213.84C415.775 211.407 428.312 208.459 433.959 208.523C430.043 211.017 427.608 212.33 423.42 214.381L426.227 215.715C431.636 214.121 449.88 211.339 454.324 214.151L454.307 215.156C450.097 216.801 446.236 216.583 442.291 218.487L442.037 219.262C447.856 222.686 464.886 213.07 479.486 227.464C472.962 226.224 467.903 225.097 461.197 224.924C466.738 227.128 470.006 228.607 474.92 232.036C472.069 231.613 473.339 231.336 470.949 232.802L470.333 233.89C470.722 234.223 471.099 234.621 471.532 234.807C477.101 241.468 477.955 243.621 479.98 251.933C476.064 247.101 457.929 223.972 452.165 224.702C451.627 226.276 453.098 226.759 454.99 228.631C461.275 234.844 463.077 239.553 465.224 247.809C457.752 239.447 450.519 229.179 441.088 222.671C436.773 222.153 432.146 221.829 427.791 221.446C439.884 229.332 444.261 229.215 451.656 243.848C445.21 239.036 433.288 233.464 425.7 229.37L424.917 230.819C429.494 234.527 431.99 236.461 435.485 241.294C431.873 239.623 424.518 235.757 421.134 235.051L409.652 233.737C412.309 235.709 414.589 237.379 417.085 239.572C419.376 241.727 420.796 243.696 422.715 246.16C418.144 243.774 413.735 241.142 409.031 238.716C406.368 239.768 404.441 240.441 402.105 242.205C403.109 242.878 404.589 243.801 405.502 244.511C408.309 246.39 409.535 247.851 411.621 250.529C408.381 249.224 405.557 248.099 402.427 246.538C398.642 245.177 394.324 243.293 390.551 241.759C388.764 240.129 387.972 239.635 385.738 238.919C383.809 240.03 383.829 240.068 381.139 239.534C381.659 242.795 380.843 242.392 380.914 244.6L381.31 244.725C383.717 245.7 385.486 246.113 387.106 248.079L387.422 249.381C384.798 253.014 379.645 250.664 376.284 249.247L374.306 251.201C377.47 254.274 378.961 256.222 381.647 259.756C377.889 258.149 370.883 254.764 366.831 256.53C367.067 259.384 374.365 261.527 376.864 262.486C374.803 263.396 372.144 264.478 370.222 265.55C383.748 265.997 379.66 266.076 389.71 272.691C394.538 275.869 401.913 277.669 407.871 281.816C403.82 280.885 382.156 276.287 379.706 277.202C382.888 282.605 409.801 284.168 417.14 291.978L416.947 292.693L415.681 292.937C412.603 292.833 410.811 292.382 408.209 293.967C415.326 296.425 420.424 297.536 426.182 302.419C419.853 301.762 414.173 300.583 407.938 299.369C414.533 306.607 418.822 305.845 427.736 308.523C433.655 310.301 438.991 312.627 444.222 315.894C438.642 314.91 428.906 312.905 423.603 313.045L423.115 313.513C427.054 316.722 448.377 321.078 452.538 328.104L451.994 328.59C448.864 328.313 436.106 324.455 432.417 323.346C433.516 324.999 434.559 326.702 435.818 328.223C446.657 332.446 458.007 334.732 466.927 342.714C460.32 341.331 452.144 339.837 445.964 337.424L444.994 337.708C446.175 342.064 453.658 343.389 457.674 345.103C463.604 347.632 467.842 350.597 472.741 354.704C468.541 353.699 455.81 349.301 453.07 349.964C454.573 352.076 460.914 355.278 463.577 357.063C469.407 360.887 474.344 365.914 478.066 371.805C471.592 368.765 465.107 364.457 459.072 360.566C460.392 363.898 461.979 367.713 463.138 371.081L461.18 371.977L459.626 370.357C458.833 371.05 458.556 374.339 458.44 375.567C458.113 378.993 457.43 380.263 456.077 383.329C453.924 375.29 453.702 368.444 450.812 359.856C450.967 357.843 450.878 354.511 450.895 352.392C449.225 350.527 448.632 349.695 446.596 348.321L446.197 349.021C444.949 351.853 445.453 350.924 442.258 352.797L440.567 347.612L438.802 347.33C439.163 350.575 440.333 358.523 438.891 361.363C436.905 359.092 435.995 353.026 435.091 349.811C433.616 350.285 431.724 350.338 430.143 350.472C428.506 348.638 420.619 332.081 417.651 327.48C418.788 332.264 421.179 340.137 419.853 344.797C416.314 342.309 414.106 327.534 410.039 322.748C409.152 324.334 410.966 333.104 409.901 334.644C407.532 331.521 405.929 324.183 403.394 319.567L403.052 318.959C402.129 318.199 397.497 317.835 396.102 317.715C396.045 320.126 396.052 320.407 395.4 322.694L394.899 322.949C393.66 320.912 393.223 317.9 392.69 315.487L392.101 312.707C391.635 310.396 391.7 309.93 390.271 308.177C389.052 308.859 387.969 315.004 386.223 317.551L385.193 317.94C381.862 310.71 380.304 305.913 373.517 301.251L373.293 300.855C371.302 299.81 371.393 300.238 368.709 300.443C365.437 293.524 362.628 288.999 358.129 282.842C360.562 289.63 361.715 293.099 362.836 300.22C360.647 296.981 358.473 293.462 356.355 290.153C354.78 291.823 355.264 291.186 355.194 294.16C356.258 297.479 356.824 299.479 357.534 302.896L356.918 302.352C352.468 298.383 348.039 290.29 346.354 289.282C343.649 292.612 343.96 293.105 340.439 296.063C336.449 296.261 332.939 296.428 329.015 297.26C323.608 321.786 314.222 345.232 308.532 369.494C302.836 393.783 299.151 420.354 296.144 445.144C294.176 461.368 292.153 480.083 291.449 496.361C290.713 513.393 291.384 532.702 292.003 549.679C292.541 564.407 292.496 582.519 293.829 597.075C307.721 597.679 321.872 596.986 335.799 597.269C378.508 598.16 416.286 604.114 458.933 609.481C508.775 615.757 552.177 620.521 603.772 622.515C624.807 623.329 685.766 625.008 707.101 614.002C709.864 612.573 720.259 590.932 722.245 587.525C793.249 445.997 762.629 275.398 648.034 166.23Z" fill="#0A4C58"/>
<path d="M218.251 253.94C232.611 247.283 244.091 248.048 258.993 250.205C261.39 250.405 265.393 250.023 266.807 250.699C266.821 252.151 266.983 251.459 266.302 252.771C250.082 261.75 240.667 272.024 229.018 285.687L228.668 285.46C228.845 283.916 229.027 282.796 229.302 281.285C227.477 279.17 227.782 281.971 227.342 279.243C230.91 272.829 237.591 265.134 243.844 261.231L244.612 259.593L243.986 259.15L240.94 260.329C229.471 268.074 216.626 283.643 209.26 295.5C211.156 287.833 212.967 283.175 217.525 276.558L215.691 275.023C209.476 283.149 203.021 291.264 196.009 298.719C197.435 295.389 199.173 291.008 200.892 287.926L193.816 287.168C190.997 292.736 185.053 304.674 181.629 309.338C183.127 303.687 184.578 298.31 186.26 292.692C187.677 287.959 192.99 281.801 192.156 278.347C188.314 279.955 175.418 309.737 170.656 316.694C171.281 313.778 173.12 305.997 173.163 303.343C173.626 301.844 173.589 302.411 173.375 300.839L172.346 300.512C168.349 309.892 166.042 320.904 162.936 327.903C162.674 324.179 162.467 320.451 162.315 316.722C161.655 318.104 160.434 321.138 159.428 322.019L158.587 321.943C157.151 324.668 156.051 325.987 154.523 328.442C154.434 324.338 155.336 321.208 155.378 317.038C155.098 314.692 154.853 313.267 154.322 310.964L153.736 310.853L153.07 312.336C148.194 317.029 143.977 322.207 138.898 326.576C142.238 317.915 146.592 313.071 151.678 305.47C156.169 298.759 156.8 296.873 163.696 292.477C164.304 290.136 164.429 289.8 165.534 287.638C168.749 281.269 180.121 274.002 186.892 271.839C187.088 269.91 188.085 267.859 189.393 266.435C195.18 262.364 208.934 259.806 216.111 258.308C216.834 255.904 216.795 255.986 218.251 253.94Z" fill="#0A4C58"/>
<path d="M228.017 261.188C230.984 260.588 233.478 260.081 236.506 259.715C227.723 266.053 224.77 268.432 217.523 276.558L215.689 275.023C219.006 270.769 224.02 264.851 228.017 261.188Z" fill="#0A4C58"/>
<path d="M165.535 287.639C168.514 287.266 177.451 280.624 183.687 278.585C177.165 286.013 172.418 287.916 163.697 292.478C164.305 290.137 164.43 289.8 165.535 287.639Z" fill="#0A4C58"/>
<path d="M186.893 271.839C187.088 269.911 188.085 267.859 189.393 266.436C193.069 268.028 199.307 265.695 203.203 267.789C201.765 268.713 190.391 270.707 186.893 271.839Z" fill="#0A4C58"/>
<path d="M172.346 300.513C173.522 296.973 175.379 290.361 178.686 288.65L179.39 289.153C179.496 292.339 174.952 300.664 173.163 303.343C173.627 301.845 173.59 302.411 173.375 300.839L172.346 300.513Z" fill="#0A4C58"/>
<path d="M216.109 258.308C216.833 255.904 216.794 255.987 218.249 253.94C221.272 256.212 225.849 254.506 229.636 256.682C227.387 257.521 219.105 258.018 216.109 258.308Z" fill="#0A4C58"/>
<path d="M240.941 260.329C243.542 257.751 247.317 254.618 251.299 255.382C251.34 257.766 245.913 260.076 243.845 261.231L244.613 259.593L243.987 259.15L240.941 260.329Z" fill="#0A4C58"/>
<path d="M367.394 178.47C369.366 175.24 370.196 175.059 373.882 174.165L374.204 175.085C376.43 175.853 378.089 175.514 380.312 176.058C383.802 177.035 387.764 177.456 388.833 181.426C385.989 181.063 378.858 181.181 375.703 181.148L375.932 182.732C372.223 183.47 368.422 185.547 365.73 184.724C365.44 182.723 365.879 182.757 366.903 180.528L367.394 178.47Z" fill="#0A4C58"/>
<path d="M366.903 180.528C369.755 180.674 372.899 180.747 375.703 181.147L375.932 182.732C372.223 183.47 368.422 185.547 365.73 184.724C365.44 182.722 365.879 182.757 366.903 180.528Z" fill="#0A4C58"/>
<path d="M367.393 178.47C369.365 175.24 370.194 175.059 373.881 174.165L374.203 175.085C376.429 175.853 378.087 175.514 380.31 176.058C373.83 175.972 371.709 178.734 367.393 178.47Z" fill="#0A4C58"/>
<path d="M447.729 347.689L448.139 346.971C450.227 348.383 450.836 349.237 452.549 351.152C452.532 353.329 452.623 356.753 452.464 358.822L451.201 359.054C450.267 360.745 450.455 362.188 450.41 364.149L449.277 373.414C446.95 366.456 446.205 359.054 443.689 351.569C446.967 349.645 446.449 350.6 447.729 347.689Z" fill="#0A4C58"/>
<path d="M447.73 347.689L448.14 346.971C450.228 348.383 450.837 349.237 452.55 351.152C452.533 353.329 452.624 356.753 452.465 358.822L451.201 359.054C450.268 360.745 450.456 362.188 450.411 364.149C449.682 358.602 448.413 352.985 447.73 347.689Z" fill="#0A4C58"/>
<path d="M385.154 315.76L386.211 315.36C388.002 312.743 389.112 306.431 390.363 305.73C391.829 307.532 391.762 308.01 392.24 310.384L392.845 313.239L391.695 313.663L391.555 314.275C390.74 317.728 390.277 318.771 388.302 321.699L385.198 316.281L385.154 315.76Z" fill="#0A4C58"/>
<path d="M385.154 315.76L386.211 315.36C388.002 312.743 389.112 306.431 390.363 305.73C391.829 307.532 391.762 308.01 392.24 310.384C388.021 312.302 390.858 316.02 385.198 316.281L385.154 315.76Z" fill="#0A4C58"/>
<path d="M335.137 117.155C335.777 120.577 335.836 124.06 335.994 127.531L336.659 127.717L336.457 128.736C337.041 126.736 337.183 124.885 337.744 123.016C337.955 126.491 338.739 139.855 336.581 141.697C334.697 140.464 334.482 139.176 333.332 136.959C335.378 129.038 335.007 125.197 335.137 117.155Z" fill="#0A4C58"/>
<path d="M153.071 312.336L153.737 310.854L154.323 310.964C154.854 313.267 155.099 314.692 155.379 317.039C151.862 321.246 146.536 333.073 143.9 338.605C145.805 328.349 151.08 320.694 153.071 312.336Z" fill="#0A4C58"/>
<path d="M190.855 209.323L191.528 208.853C193.404 209.306 195.261 209.834 197.094 210.434C191.594 212.965 185.916 224.497 183.029 229.867C183.754 226.668 184.546 224.631 185.61 221.671C186.778 218.42 191.309 211.947 190.855 209.323Z" fill="#0A4C58"/>
<path d="M403.824 137.865C402.102 137.223 401.015 135.677 400.227 134.12L401.087 133.537C408.872 136.85 412.872 131.797 419.564 142.295C416.173 139.968 407.655 134.994 403.824 137.865Z" fill="#0A4C58"/>
<path d="M375.702 181.147C378.857 181.18 385.988 181.063 388.832 181.426C385.789 182.049 382.901 182.424 379.832 182.848C381.939 183.826 384.424 184.662 385.78 186.445C384.459 188.019 377.63 187.048 375.248 187.033C377.892 186.225 377.638 186.551 378.644 184.823C377.589 182.88 378.354 183.67 375.931 182.732L375.702 181.147Z" fill="#0A4C58"/>
<path d="M473.717 230.355C473.274 230.164 472.887 229.755 472.488 229.413L473.12 228.295C475.572 226.789 474.269 227.074 477.194 227.509C482.071 231.048 486.919 235.886 490.321 240.863C486.15 237.749 479.408 231.208 474.992 229.971L473.717 230.355Z" fill="#0A4C58"/>
<path d="M368.244 297.786C370.998 297.575 370.904 297.135 372.947 298.209L373.176 298.615C373.32 301.821 374.956 308.496 375.372 313.162C372.979 307.978 370.493 303.057 368.244 297.786Z" fill="#0A4C58"/>
<path d="M264.064 247.458C267.349 247.728 271.664 247.833 271.715 251.94L270.717 253.352C269.258 252.396 268.089 252.687 266.301 252.771C266.983 251.459 266.82 252.152 266.807 250.699C265.393 250.023 261.389 250.405 258.992 250.206C260.832 250.004 262.28 250.061 263.776 249.038L264.064 247.458Z" fill="#0A4C58"/>
<path d="M385.714 234.58C388.007 235.315 388.819 235.823 390.652 237.497C387.465 238.093 384.018 238.922 381.172 240.544L380.766 240.415C380.693 238.147 381.531 238.562 380.997 235.212C383.757 235.76 383.735 235.721 385.714 234.58Z" fill="#0A4C58"/>
<path d="M465.108 370.352C466.599 376.483 467.965 385.281 468.431 391.54C467.436 388.049 463.333 374.285 463.1 371.272L465.108 370.352Z" fill="#0A4C58"/>
<path d="M396.344 315.528C397.774 315.651 402.526 316.025 403.473 316.806C402.965 319.147 402.705 324.869 402.524 327.548C400.965 321.158 400.64 320.497 396.344 315.528Z" fill="#0A4C58"/>
<path d="M285.635 292.451C286.297 289.521 286.518 287.642 288.051 285.042L288.39 286.074L288.445 285.402C288.619 288.688 286.966 302.805 285.944 305.472C285.722 301.562 287.123 295.345 285.635 292.451Z" fill="#0A4C58"/>
<path d="M253.059 111.28C259.429 110.304 261.327 110.417 267.649 111.119C268.786 112.336 268.666 112.52 269.127 114.173C264.005 112.519 258.633 112.384 253.059 111.28Z" fill="#0A4C58"/>
<path d="M404.907 205.903C407.791 205.629 408.439 206.43 410.835 208.399L411.336 208.815C407.404 211.168 404.478 211.81 400.123 212.917C402.285 211.335 406.163 209.044 406.613 206.614L404.907 205.903Z" fill="#0A4C58"/>
<path d="M250.216 336.63C250.4 339.645 250.297 340.406 249.813 343.406L250.269 343.831C250.188 346.439 249.069 350.567 248.012 352.949C246.92 350.235 249.364 339.748 250.216 336.63Z" fill="#0A4C58"/>
<path d="M154.524 328.442C156.052 325.987 157.153 324.668 158.588 321.944L159.429 322.019C158.546 324.732 156.655 331.575 154.468 333.079C153.85 331.453 154.255 330.195 154.524 328.442Z" fill="#0A4C58"/>
<path d="M410.242 229.256L422.021 230.605C419.375 231.084 419.307 230.604 418.089 232.178L417.867 235.251C415.306 232.998 412.968 231.281 410.242 229.256Z" fill="#0A4C58"/>
<path d="M442.502 498.498C463.214 494.566 482.76 494.913 500.815 507.142C503.336 508.883 505.8 510.692 508.212 512.57C530.154 503.101 557.968 498.629 581.087 505.645C558.895 506.567 533.067 509.805 516.378 526.71C513.271 529.851 508.958 537.789 507.046 538.978C505.162 536.799 502.198 530.255 499.91 527.063C489.366 512.308 474.373 501.099 455.754 499.955C452.886 500.08 449.939 499.926 447.077 500C442.769 500.114 438.445 500.848 434.086 501.178C437.221 500.074 439.201 499.198 442.502 498.498Z" fill="#0A4C58"/>
<path d="M455.754 499.955C452.886 500.08 449.939 499.926 447.077 500C442.769 500.114 438.445 500.848 434.086 501.178C437.221 500.074 439.201 499.198 442.502 498.498C445.25 500.017 452.004 499.152 455.754 499.955Z" fill="#0A4C58"/>
<path d="M511.887 437.057C523.393 435.975 534.887 436.971 544.782 443.078C547.695 444.875 550.233 446.9 553.061 448.516L553.477 448.748C570.911 439.832 588.318 440.581 607.329 442.492C599.653 443.644 591.715 444.521 584.175 446.212C568.721 450.02 560.629 454.789 552.652 468.648C540.788 446.227 527.672 438.058 502.236 439.121C506.111 438.043 507.909 437.592 511.887 437.057Z" fill="#0A4C58"/>
<path d="M420.844 400.005C435.582 398.833 441.437 403.834 450.616 414.204C464.551 405.11 476.039 403.229 492.16 407.963C481.457 409.043 475.897 409.728 466.605 414.97C460.272 419.012 456.579 423.587 453.193 430.21C452.254 432.052 450.946 434.686 449.552 436.05C448.732 435.206 448.869 435.557 448.556 434.571C445.591 425.393 440.026 414.274 432.378 408.194C424.441 401.885 418.238 402.712 409.105 403.76C413.197 402.062 416.508 400.871 420.844 400.005Z" fill="#0A4C58"/>
<path d="M324.713 169.803C326.237 171.275 327.501 172.878 329.52 173.264C330.693 172.844 330.409 173.068 331.344 172.327C332.833 174.163 334.029 177.617 332.959 179.876C330.836 178.621 331.002 176.397 328.834 175.353C327.081 179.108 331.163 194.423 330.37 200.052L329.969 200.235C325.281 197.397 325.871 176.582 324.882 170.766L324.713 169.803Z" fill="#0A4C58"/>
<path d="M301.294 248.696C303.179 248.037 303.741 247.646 305.679 248.139C307.168 249.457 306.78 248.676 307.137 250.41C305.974 252.241 305.497 252.221 303.221 251.651C299.323 252.737 288.39 257.343 283.676 256.615L283.746 255.816C287.378 251.596 293.725 252.418 300.413 249.133L301.294 248.696Z" fill="#0A4C58"/>
<path d="M301.295 248.696C303.18 248.037 303.742 247.646 305.68 248.139C307.169 249.457 306.781 248.676 307.138 250.41C305.975 252.241 305.498 252.221 303.222 251.651L301.295 248.696Z" fill="#0A4C58"/>
<path d="M254.287 184.323C256.283 183.719 256.386 183.613 258.117 182.621C259.659 185.512 276.607 190.423 277.817 196.97C275.328 196.762 257.62 186.328 254.287 184.323Z" fill="#0A4C58"/>
<path d="M320.685 155.661L322.034 157.382L321.023 158.547C319.878 159.522 319.359 159.549 319.279 161.008C318.995 166.224 321.106 171.515 320.855 176.632L320.178 177.025L318.777 176.175C315.9 173.567 316.543 172.681 316.741 168.8C316.637 164.507 316.472 160.293 316.723 156L319.076 157.141C320.409 156.419 319.877 156.916 320.685 155.661Z" fill="#0A4C58"/>
<path d="M316.741 168.8L317.94 168.685C320.008 170.437 319.994 173.923 318.777 176.175C315.9 173.566 316.543 172.68 316.741 168.8Z" fill="#0A4C58"/>
<path d="M307.306 134.549L307.982 136.92L308.203 136.663C310.011 137.162 309.169 136.85 310.716 138.343L310.822 139.054C309.967 142.68 312.918 153.714 308.091 155.931C306.95 152.901 307.107 138.33 307.306 134.549Z" fill="#0A4C58"/>
<path d="M440.145 345.953C433.504 339.883 440.543 340.329 434.529 336.289C434.153 334.101 433.977 335.073 434.773 333.239C440.572 332.191 442.671 341.874 441.954 346.242L440.145 345.953Z" fill="#0A4C58"/>
<path d="M341.931 130.879C343.385 134.308 341.295 137.528 343.733 141.954C340.327 145.911 342.041 157.442 339.024 162.027L338.405 161.83C336.493 155.545 342.295 141.516 341.956 131.524L341.931 130.879Z" fill="#0A4C58"/>
<path d="M295.686 160.607C300.759 162.834 306.107 164.866 309.181 169.739L309.056 170.324C304.207 168.634 298.596 163.794 294.935 165.041L293.351 167.045L292.955 164.289C293.841 162.58 294.438 162.023 295.686 160.607Z" fill="#0A4C58"/>
<path d="M322.035 157.382C325.559 162.392 328.57 166.855 331.344 172.328C330.409 173.068 330.693 172.844 329.52 173.264C327.501 172.878 326.237 171.276 324.713 169.803C323.7 164.916 322.964 163.149 321.023 158.547L322.035 157.382Z" fill="#0A4C58"/>
<path d="M372.969 200.187C364.04 197.659 358.208 204.745 353.737 204.453L353.402 203.324C355.635 200.031 366.155 196.269 370.118 196.662L369.792 198.398C371.818 199.138 371.974 198.76 372.969 200.187Z" fill="#0A4C58"/>
<path d="M398.191 228.25C400.869 228.796 408.018 232.51 409.606 234.371C406.874 235.453 404.899 236.143 402.502 237.956L401.665 237.363C401.278 232.647 400.966 231.978 396.717 230.125L398.191 228.25Z" fill="#0A4C58"/>
<path d="M425.905 226.259C423.646 225.871 410.655 220.362 410.08 218.345C414.331 217.098 423.338 222.126 426.707 224.77L425.905 226.259Z" fill="#0A4C58"/>
<path d="M257.006 336.742C257.398 333.307 258.06 324.234 259.896 321.91L260.633 322.3C261.63 326.744 261.387 333.582 260.807 338.111C259.826 337.055 259.313 336.283 257.954 335.821L257.006 336.742Z" fill="#0A4C58"/>
<path d="M400.761 290.36C398.909 289.224 397.553 288.478 396.76 286.643C399.283 285.375 412.839 289.247 416.43 290.073C413.272 289.967 411.434 289.503 408.765 291.131C406.096 290.857 403.43 290.599 400.761 290.36Z" fill="#0A4C58"/>
<path d="M303.034 274.545C302.323 282.237 301.807 283.747 296.711 289.398C296.535 290.442 295.749 295.547 295.468 296.194C295.3 293.324 296.228 289.888 294.965 288.461L293.967 288.669C295.723 284.369 300.696 280.706 302.316 275.945C302.297 276.002 303.053 274.507 303.034 274.545Z" fill="#0A4C58"/>
<path d="M234.523 206.988C236.888 202.982 241.946 200.121 246.06 198.185L247.895 199.979C242.685 203.21 238.639 204.514 235.571 210.08C235.588 208.381 235.458 208.459 234.523 206.988Z" fill="#0A4C58"/>
<path d="M380.996 235.212C377.835 234.4 373.513 235.146 371.562 231.546C374.921 229.224 382.54 233.154 385.713 234.58C383.734 235.721 383.755 235.761 380.996 235.212Z" fill="#0A4C58"/>
<path d="M267.391 276.892C267.986 277.483 268.671 278.444 269.282 278.282C275.001 276.773 278.223 274.369 284.521 272.804C279.982 275.931 275.413 279.015 270.813 282.053C268.91 279.051 268.031 280.356 266.41 278.319L267.391 276.892Z" fill="#0A4C58"/>
<path d="M325.871 103.247L326.798 105.618C328.152 105.949 328.162 105.913 329.569 105.857C328.964 109.399 331.487 114.675 328.629 116.724C324.974 114.79 325.84 106.834 325.871 103.247Z" fill="#0A4C58"/>
<path d="M429.369 333.835C432.311 339.162 434.251 342.784 436.34 348.5C434.826 348.988 432.886 349.043 431.264 349.18C431.571 343.389 430.57 339.481 429.369 333.835Z" fill="#0A4C58"/>
<path d="M396.717 230.125C392.324 228.085 390.626 228.168 386.041 227.038L385.592 225.891C386.375 224.267 385.798 224.943 387.595 224.005C391.431 223.916 394.813 226.338 398.191 228.25L396.717 230.125Z" fill="#0A4C58"/>
<path d="M290.459 239.296C294.568 239.519 299.546 237.78 302.808 239.504L302.684 240.348C301.035 241.416 295.094 243.485 293.504 243.4C292.884 241.529 291.887 240.857 290.459 239.296Z" fill="#0A4C58"/>
<path d="M269.587 304.216C270.351 309.661 270.084 316.025 270.028 321.583L266.381 320.76C267.434 315.514 268.379 309.253 269.587 304.216Z" fill="#0A4C58"/>
<path d="M357.736 224.618L358.826 225.003L358.898 225.925C356.415 228.248 352.782 230.563 349.31 230.778L347.625 229.591L347.768 228.666C349.542 227.301 354.963 225.723 357.736 224.618Z" fill="#0A4C58"/>
<path d="M354.381 291.33C352.454 286.393 349.423 281.62 348.023 276.878L348.38 276.419C351.577 279.079 353.598 283.521 355.571 287.213C353.956 288.929 354.453 288.274 354.381 291.33Z" fill="#0A4C58"/>
<path d="M233.496 199.945C235.74 197.191 240.161 191.184 244.045 194.965C243.367 197.494 237.681 197.914 234.886 200.641L233.496 199.945Z" fill="#0A4C58"/>
<path d="M257.516 306.2C261.399 302.464 263.807 300.786 268.505 298.261C265.229 303.737 264.126 304.421 258.843 308.033L257.516 306.2Z" fill="#0A4C58"/>
<path d="M246.061 198.185C249.034 195.351 249.819 194.642 253.885 194.362L255.001 194.876C254.457 197.777 250.457 198.858 247.896 199.979L246.061 198.185Z" fill="#0A4C58"/>
<path d="M289.152 204.523C293.227 205.773 295.623 208.8 296.693 212.819C291.678 210.943 289.311 210.343 289.152 204.523Z" fill="#0A4C58"/>
<path d="M400.856 220.064C404.607 219.718 407.722 220.824 408.098 224.953C404.89 224.554 400.58 224.213 400.856 220.064Z" fill="#0A4C58"/>
<path d="M401.167 299.364C403.43 299.486 403.954 300.08 405.374 301.675C406.083 304.338 406.169 303.062 405.054 305.637C402.829 304.683 401.761 304.46 400.208 302.71C399.827 300.501 399.692 301.607 401.167 299.364Z" fill="#0A4C58"/>
<path d="M377.401 280.575C379.749 281.054 382.813 283.629 382.95 286.155C380.478 286.172 378.623 286.402 376.804 284.681C376.398 282.274 376.468 283.111 377.401 280.575Z" fill="#0A4C58"/>
<path d="M373.986 247.197C371.854 246.148 369.083 245.093 368.26 242.857L369.051 242.244C371.722 242.401 373.622 243.833 376.014 245.19L373.986 247.197Z" fill="#0A4C58"/>
<path d="M427.245 210.741C423.644 211.835 422.602 213.279 418.653 212.287L418.585 211.498L418.488 212.006C420.082 209.879 421.515 210.008 424.366 209.371L427.245 210.741Z" fill="#0A4C58"/>
<path d="M418.186 315.264C421.97 316.082 422.892 318.163 423.062 321.629C418.761 320.787 417.981 319.568 418.186 315.264Z" fill="#0A4C58"/>
<path d="M277.43 251.948C279.255 252.19 279.319 252.09 280.913 252.93C281.054 254.703 280.839 254.352 279.674 256.201C277.222 255.968 277.384 256.388 275.873 255.088C276.055 253.292 276.187 253.649 277.43 251.948Z" fill="#0A4C58"/>
<path d="M361.831 270.372C363.502 270.9 364.54 271.005 365.575 272.388C365.651 274.418 365.827 273.429 364.745 275.393C362.662 274.571 361.391 274.442 360.777 272.215L361.831 270.372Z" fill="#0A4C58"/>
<path d="M227.895 205.056C228.158 204.757 232.746 200.658 233.498 199.945L234.888 200.641C232.879 203.215 231.666 205.003 228.57 206.214L227.895 205.056Z" fill="#0A4C58"/>
<path d="M351.848 240.292C353.736 240.302 353.902 240.383 355.671 240.79C357.06 242.487 356.606 241.5 356.69 244.003C354.774 244.031 354.552 244.029 352.676 243.683C351.434 241.923 351.906 242.922 351.848 240.292Z" fill="#0A4C58"/>
<path d="M327.231 130.535C329.646 133.125 330.376 135.236 331.767 138.472L324.635 131.25C325.385 130.829 326.392 130.721 327.231 130.535Z" fill="#0A4C58"/>
<path d="M215.774 672.669C251.034 669.767 292.254 677.341 326.414 685.592C374.902 697.308 422.068 715.357 471.982 720.547C489.218 722.402 506.636 721.435 523.559 717.673C527.644 716.746 540.032 712.711 542.877 712.672L543.4 713.491C523.798 757.033 433.721 746.574 394.534 744.617C387.285 743.513 377.283 742.801 369.697 741.942C354.053 740.184 338.447 738.101 322.888 735.706C248.425 724.109 172.739 708.381 96.9981 723.244C86.6316 725.281 76.8291 728.559 66.7773 731.751C73.5225 725.856 84.6383 718.453 92.2752 713.531C128.363 690.252 172.604 674.752 215.774 672.669Z" fill="#0A4C58"/>
<path d="M78.7109 698.509C80.7941 695.76 82.7299 693.718 85.2985 691.43L86.4246 691.88C84.1906 694.207 81.2414 696.449 78.7109 698.509Z" fill="#0A4C58"/>
</svg>
