<svg preserveAspectRatio="none" width="100%" height="100%" overflow="visible" style="display: block;" viewBox="0 0 39.5022 27.6515" fill="none" xmlns="http://www.w3.org/2000/svg">
<path id="Vector" d="M19.751 24.1016H37.5273C38.3971 24.1017 39.1025 24.807 39.1025 25.6768C39.1023 26.5463 38.3969 27.2518 37.5273 27.252H19.751C18.8813 27.2519 18.176 26.5464 18.1758 25.6768C18.1758 24.8069 18.8812 24.1016 19.751 24.1016ZM1.97559 12.251H37.5273C38.3971 12.2511 39.1025 12.9565 39.1025 13.8262C39.1023 14.6958 38.3969 15.4002 37.5273 15.4004H1.97559C1.10585 15.4004 0.400616 14.6959 0.400391 13.8262C0.400391 12.9564 1.10573 12.251 1.97559 12.251ZM11.8506 0.400391H37.5273C38.3971 0.400551 39.1025 1.10581 39.1025 1.97559C39.1023 2.84514 38.3969 3.54964 37.5273 3.5498H11.8506C10.9809 3.54977 10.2756 2.84515 10.2754 1.97559C10.2754 1.10574 10.9807 0.400424 11.8506 0.400391Z" fill="var(--fill-0, white)" stroke="var(--stroke-0, #30374A)" stroke-width="0.8"/>
</svg>
